<?xml version="1.0" encoding="utf-8"?>
<!-- Generator: Adobe Illustrator 24.3.0, SVG Export Plug-In . SVG Version: 6.00 Build 0)  -->
<svg version="1.1" id="Layer_1" xmlns="http://www.w3.org/2000/svg" xmlns:xlink="http://www.w3.org/1999/xlink" x="0px" y="0px"
	 viewBox="0 0 174 173" style="enable-background:new 0 0 174 173;" xml:space="preserve">
<style type="text/css">
	.st0{fill:#FFFFFF;}
</style>
<desc>Created with Sketch.</desc>
<path class="st0" d="M49.7,20.7c0.5,0.7,1.3,0.9,2.2,0.4c1-0.5,1.1-1.1,0.7-1.7c-0.4-0.8-1.1-0.8-2.5-0.5c-2.2,0.5-3.3,0.2-4-1
	c-0.9-1.6-0.1-3.1,1.5-4c2-1.1,3.4-0.5,4.3,0.8l-1.7,0.9c-0.4-0.6-1-0.9-1.9-0.4c-0.8,0.4-0.9,1-0.6,1.6c0.3,0.6,0.9,0.6,2.2,0.3
	c2.5-0.6,3.5,0,4.2,1.2c0.8,1.4,0.5,3-1.7,4.3c-1.8,1-3.5,0.8-4.6-0.9L49.7,20.7z"/>
<path class="st0" d="M67.9,12.8c0.3,1.6-0.3,3.4-2.6,4.2c-2.9,1-4.6-0.8-5.5-3.4s-0.2-5.1,2.4-6c2.5-0.8,3.9,0.4,4.5,1.8L64.9,10
	c-0.4-0.7-1-1.3-2.2-0.9c-1.5,0.5-1.5,2.2-1,3.8c0.6,1.7,1.5,3.1,3.1,2.5C66,15,66.1,14,66,13.3L67.9,12.8z"/>
<path class="st0" d="M76.8,10l0.5,3.9l-1.9,0.2l-1.2-9.5l3.9-0.5c1.8-0.2,3.2,0.5,3.4,2.2c0.2,1.3-0.4,2-1.2,2.4
	c1,0.2,1.4,0.9,1.6,2.1V11c0.1,0.8,0.3,1.6,0.4,2.2l-1.9,0.2c-0.2-0.4-0.3-1-0.5-2.2v-0.3c-0.1-1.1-0.6-1.4-1.8-1.3L76.8,10z
	 M76.6,8.5L78,8.3c0.9-0.1,1.6-0.5,1.5-1.5c-0.1-0.9-0.8-1.1-1.6-1L76.3,6L76.6,8.5z"/>
<path class="st0" d="M97.7,8.7c-0.2,2.8-1.6,4.9-4.7,4.7c-3-0.2-4.1-2.5-3.9-5.3c0.1-2.4,1.6-4.8,4.7-4.6
	C96.6,3.8,97.8,6.2,97.7,8.7z M91.1,8.3c-0.1,1.9,0.5,3.5,2.1,3.6c1.7,0.1,2.4-1.3,2.5-3.3c0.1-1.8-0.4-3.4-2.1-3.5
	C92,5.1,91.2,6.5,91.1,8.3z"/>
<path class="st0" d="M106.4,5.5l1.9,0.5l-2,7.7l4.2,1.1l-0.6,1.5l-5.8-1.5L106.4,5.5z"/>
<path class="st0" d="M120,9.7l1.8,0.8l-3.3,7.3l3.9,1.7l-0.8,1.4l-5.5-2.5L120,9.7z"/>
<path class="st0" d="M140.9,24.2l-2-1.7l1.1-1.2l5.4,4.7l-1.1,1.2l-2-1.7l-5.2,6.1l-1.5-1.3L140.9,24.2z"/>
<path class="st0" d="M152.6,41.2c-2.2,1.7-4.7,2.1-6.6-0.3c-1.9-2.3-0.9-4.7,1.3-6.4c1.8-1.5,4.6-2,6.5,0.4
	C155.5,37.1,154.6,39.6,152.6,41.2z M148.5,36.1c-1.5,1.2-2.2,2.7-1.3,3.9c1,1.3,2.5,0.9,4.1-0.4c1.4-1.1,2.2-2.5,1.1-3.9
	C151.5,34.5,149.9,34.9,148.5,36.1z"/>
<path class="st0" d="M160.9,45.5l1.6,3.1c0.8,1.6,0.8,3.4-1,4.3c-1.8,0.9-3.4,0.1-4.3-1.7l-0.7-1.2l-3.3,1.7l-0.9-1.7L160.9,45.5z
	 M158,49.2l0.6,1.1c0.5,0.9,1.1,1.3,2.1,0.8c0.8-0.4,0.9-1.2,0.4-2.1l-0.6-1.2L158,49.2z"/>
<g>
	<path class="st0" d="M49.5,141.4c-0.4-0.9-1.4-1.3-2.3-0.9c-0.9,0.4-1.3,1.4-0.9,2.3l5.3,12.2l-12.2,5.3c-0.9,0.4-1.3,1.4-0.9,2.3
		c0.4,0.9,1.4,1.3,2.3,0.9l13.7-6c0,0,0.1,0,0.1,0c0.9-0.4,1.3-1.4,0.9-2.3l0,0C55.5,155.2,49.5,141.4,49.5,141.4z"/>
	<path class="st0" d="M155,91.7c-0.6,0.8-0.4,1.9,0.4,2.4c0.8,0.6,1.9,0.4,2.4-0.4l7.9-10.7l10.7,7.9c0.8,0.6,1.9,0.4,2.4-0.4
		c0.6-0.8,0.4-1.9-0.4-2.4l-12-8.9c0,0-0.1,0-0.1-0.1c-0.8-0.6-1.9-0.4-2.4,0.4l1.4,1l-1.4-1C164,79.6,155,91.7,155,91.7z"/>
	<path class="st0" d="M167.1,80.6c1,13.9-1.8,27.8-7.9,40.4c-5.9,12.1-14.9,22.9-26.9,30.9c-8.9,6-18.6,10-28.5,12l0,0
		C93.5,166,83,166,72.8,164l0.7-3.4c9.7,1.9,19.8,1.9,29.7-0.1l0,0c9.5-1.9,18.7-5.7,27.3-11.5c11.4-7.7,20.1-18,25.7-29.6
		c5.8-12,8.4-25.3,7.5-38.6C163.7,80.8,167.1,80.6,167.1,80.6z"/>
	<path class="st0" d="M53.1,157.4c-6.2-3-12-6.8-17.2-11.4c-5.1-4.4-9.7-9.6-13.7-15.5C12,115.5,7.7,98.2,8.7,81.4
		c1-17.2,7.6-34,19.3-47.3l2.6,2.3C19.5,49.1,13.1,65.1,12.1,81.6c-1,16.1,3.2,32.6,12.9,47c3.8,5.6,8.2,10.6,13.1,14.8
		c5.1,4.4,10.6,8,16.5,10.9C54.6,154.3,53.1,157.4,53.1,157.4z"/>
</g>
</svg>
